<?xml version="1.0" standalone="no"?>
<!DOCTYPE svg PUBLIC "-//W3C//DTD SVG 20010904//EN"
 "http://www.w3.org/TR/2001/REC-SVG-20010904/DTD/svg10.dtd">
<svg version="1.0" xmlns="http://www.w3.org/2000/svg"
 width="260.000000pt" height="260.000000pt" viewBox="0 0 260.000000 260.000000"
 preserveAspectRatio="xMidYMid meet">
<metadata>
Created by potrace 1.14, written by Peter Selinger 2001-2017
</metadata>
<g transform="translate(0.000000,260.000000) scale(0.100000,-0.100000)"
fill="#000000" stroke="none">
<path d="M0 1300 l0 -1300 1300 0 1300 0 0 1300 0 1300 -1300 0 -1300 0 0
-1300z m1084 685 c4 -11 -3 -17 -24 -21 -48 -10 -47 -22 11 -120 13 -22 44
-76 69 -118 l45 -78 3 137 c3 150 -5 175 -55 175 -16 0 -23 6 -23 20 0 20 5
20 162 18 146 -3 163 -5 166 -20 3 -14 -3 -18 -27 -18 -41 0 -63 -35 -60 -92
1 -24 6 -51 11 -60 5 -10 4 -19 -3 -23 -6 -4 -8 -24 -5 -49 3 -22 5 -52 6 -66
0 -24 1 -23 22 10 80 131 147 254 142 262 -3 5 -17 13 -30 18 -13 5 -24 16
-24 25 0 13 22 15 150 15 123 0 150 -3 150 -14 0 -8 -17 -23 -37 -33 -39 -19
-106 -116 -98 -141 3 -7 1 -11 -3 -8 -4 2 -44 -60 -89 -137 -116 -202 -145
-257 -136 -257 4 0 3 -4 -3 -8 -5 -4 -18 -18 -27 -31 -16 -24 -15 -27 7 -65
13 -23 38 -68 56 -101 34 -62 99 -177 130 -230 10 -16 39 -68 65 -115 55 -98
72 -119 103 -131 12 -5 22 -15 22 -24 0 -13 -22 -15 -145 -15 -119 0 -145 3
-145 14 0 8 9 17 19 21 47 15 44 28 -38 170 -44 76 -85 143 -91 149 -7 7 -10
-35 -10 -136 0 -146 0 -147 26 -167 15 -12 35 -21 46 -21 11 0 18 -5 16 -12
-7 -20 -328 -24 -328 -4 0 7 11 17 24 20 52 13 56 26 56 184 l0 147 -48 -85
c-73 -128 -91 -159 -107 -184 -19 -29 -11 -52 21 -60 13 -4 24 -13 24 -21 0
-13 -24 -15 -145 -15 -118 0 -145 3 -145 14 0 8 15 23 34 34 22 13 47 44 72
89 21 37 96 169 166 292 l127 224 -17 31 c-23 41 -38 56 -47 48 -5 -4 -5 -1
-1 5 12 22 -38 98 -56 87 -6 -4 -5 -10 3 -15 8 -5 9 -9 3 -9 -6 0 -18 8 -25
18 -7 9 -10 14 -5 10 11 -9 35 14 29 29 -3 7 -9 10 -15 7 -5 -3 -8 0 -7 7 1 8
-1 22 -6 32 -6 15 -10 16 -17 5 -7 -9 -8 -8 -4 6 4 12 -20 64 -70 155 -92 163
-119 201 -144 201 -21 0 -34 15 -25 30 4 6 65 10 150 10 119 0 144 -3 149 -15z"/>
<path d="M1425 1619 c-4 -6 -5 -12 -2 -15 2 -3 7 2 10 11 7 17 1 20 -8 4z"/>
<path d="M1365 1180 c9 -16 18 -30 21 -30 2 0 -2 14 -11 30 -9 17 -18 30 -21
30 -2 0 2 -13 11 -30z"/>
<path d="M1171 1173 c-10 -26 -10 -27 4 -9 8 11 15 23 15 28 0 15 -7 8 -19
-19z"/>
<path d="M1273 1130 c0 -36 2 -50 4 -32 2 17 2 47 0 65 -2 17 -4 3 -4 -33z"/>
<path d="M1135 1108 l-16 -33 20 25 c20 24 26 40 16 40 -2 0 -12 -15 -20 -32z"/>
<path d="M1415 1090 c9 -16 18 -30 21 -30 2 0 -2 14 -11 30 -9 17 -18 30 -21
30 -2 0 2 -13 11 -30z"/>
</g>
</svg>
